<svg width="24" height="24" viewBox="0 0 24 24" fill="none" xmlns="http://www.w3.org/2000/svg">
<path d="M12 23.5C5.65897 23.5 0.5 18.341 0.5 12C0.5 5.65897 5.65897 0.5 12 0.5C18.341 0.5 23.5 5.65897 23.5 12C23.5 18.341 18.341 23.5 12 23.5ZM12 1.19697C6.043 1.19697 1.19697 6.043 1.19697 12C1.19697 17.957 6.043 22.803 12 22.803C17.957 22.803 22.803 17.957 22.803 12C22.803 6.043 17.957 1.19697 12 1.19697Z" fill="#9EE8A6" stroke="white"/>
<path d="M12.0001 23.5C9.60602 23.5 7.30533 22.7626 5.34475 21.3673C5.24021 21.2927 5.18445 21.1651 5.20117 21.0376C5.2179 20.91 5.30433 20.8013 5.4256 20.7567C8.31524 19.6869 8.78151 18.8184 8.78151 17.1541C8.78151 16.7143 8.68254 16.57 8.50411 16.308C8.26784 15.9637 7.94445 15.4918 7.71724 14.2596C7.68378 14.0825 7.6552 14.0686 7.49699 13.9919C7.07463 13.7884 6.68642 13.4957 6.58466 12.1603C6.58466 11.5135 6.80769 11.156 6.99239 10.9699C6.95196 10.7399 6.88575 10.3433 6.82372 9.91117C6.50799 7.97568 6.49405 5.60529 9.21642 4.50338C11.5889 3.54156 13.4826 4.06708 14.0771 4.69365C14.4981 4.7069 15.5839 4.81702 16.3394 5.69589C17.502 7.04802 17.1319 10.1307 17.0051 10.9664C17.1904 11.1483 17.4156 11.501 17.4156 12.1338C17.3138 13.4957 16.9256 13.7891 16.5025 13.9919C16.3436 14.0686 16.3151 14.0818 16.2823 14.2596C16.0551 15.4918 15.7324 15.9637 15.4961 16.308C15.317 16.5693 15.2187 16.7143 15.2187 17.1541C15.2187 18.8184 15.685 19.6869 18.5746 20.7567C18.6959 20.8013 18.7823 20.9093 18.7991 21.0376C18.8158 21.1658 18.76 21.2927 18.6555 21.3673C16.6949 22.7626 14.3942 23.5 12.0001 23.5ZM6.29681 21.1658C8.01275 22.2392 9.97124 22.803 12.0001 22.803C14.029 22.803 15.9875 22.2392 17.7034 21.1658C15.2821 20.172 14.5218 19.1697 14.5218 17.1548C14.5218 16.4989 14.7155 16.2153 14.9211 15.9149C15.133 15.6054 15.3964 15.2207 15.5979 14.1334C15.6948 13.6079 15.9993 13.4615 16.2008 13.3647C16.4175 13.2608 16.6405 13.1535 16.7193 12.108C16.7186 11.5755 16.4795 11.4306 16.4698 11.425C16.3415 11.3511 16.2586 11.1957 16.2858 11.0507C16.4586 10.1244 16.743 7.2355 15.8111 6.15032C15.1748 5.41014 14.1719 5.38993 13.9809 5.39759C13.9488 5.3948 13.9175 5.39411 13.8875 5.38644C13.7969 5.36344 13.6436 5.28468 13.5969 5.20383C13.4073 4.87905 11.7562 4.22599 9.47778 5.14808C7.22587 6.05971 7.22099 8.01402 7.51302 9.80523C7.60921 10.4722 7.71445 11.0486 7.71514 11.0514C7.74372 11.2082 7.66217 11.3643 7.5179 11.4306C7.51999 11.4306 7.28163 11.5762 7.28163 12.1331C7.35969 13.1514 7.58342 13.2594 7.79948 13.3633C8.0009 13.4601 8.30617 13.6065 8.40305 14.132C8.60378 15.2193 8.86724 15.604 9.07911 15.9135C9.28542 16.2139 9.47918 16.4975 9.47918 17.1534C9.47918 19.1704 8.71878 20.1727 6.29681 21.1658Z" fill="#9EE8A6" stroke="white"/>
</svg>
