<svg width="31" height="31" viewBox="0 0 31 31" fill="none" xmlns="http://www.w3.org/2000/svg">
<path d="M15.25 30.25C6.97909 30.25 0.25 23.5209 0.25 15.25C0.25 6.97909 6.97909 0.25 15.25 0.25C23.5209 0.25 30.25 6.97909 30.25 15.25C30.25 23.5209 23.5209 30.25 15.25 30.25ZM15.25 1.15909C7.48 1.15909 1.15909 7.48 1.15909 15.25C1.15909 23.02 7.48 29.3409 15.25 29.3409C23.02 29.3409 29.3409 23.02 29.3409 15.25C29.3409 7.48 23.02 1.15909 15.25 1.15909Z" fill="#9EE8A6" stroke="#9EE8A6" stroke-width="0.5"/>
<path d="M15.2499 30.2499C12.1272 30.2499 9.1263 29.2881 6.56903 27.4681C6.43266 27.3708 6.35994 27.2045 6.38175 27.0381C6.40357 26.8718 6.5163 26.7299 6.67448 26.6718C10.4436 25.2763 11.0518 24.1436 11.0518 21.9727C11.0518 21.399 10.9227 21.2108 10.6899 20.869C10.3818 20.4199 9.95994 19.8045 9.66357 18.1972C9.61994 17.9663 9.58266 17.9481 9.3763 17.8481C8.82539 17.5827 8.31903 17.2008 8.1863 15.459C8.1863 14.6154 8.47721 14.149 8.71812 13.9063C8.66539 13.6063 8.57903 13.089 8.49812 12.5254C8.0863 10.0008 8.06812 6.90903 11.619 5.47176C14.7136 4.21721 17.1836 4.90267 17.959 5.71994C18.5081 5.73721 19.9245 5.88085 20.9099 7.02721C22.4263 8.79085 21.9436 12.8118 21.7781 13.9018C22.0199 14.139 22.3136 14.599 22.3136 15.4245C22.1808 17.2008 21.6745 17.5836 21.1227 17.8481C20.9154 17.9481 20.8781 17.9654 20.8354 18.1972C20.539 19.8045 20.1181 20.4199 19.8099 20.869C19.5763 21.2099 19.4481 21.399 19.4481 21.9727C19.4481 24.1436 20.0563 25.2763 23.8254 26.6718C23.9836 26.7299 24.0963 26.8708 24.1181 27.0381C24.1399 27.2054 24.0672 27.3708 23.9308 27.4681C21.3736 29.2881 18.3727 30.2499 15.2499 30.2499ZM7.81085 27.2054C10.049 28.6054 12.6036 29.3408 15.2499 29.3408C17.8963 29.3408 20.4508 28.6054 22.689 27.2054C19.5308 25.909 18.539 24.6018 18.539 21.9736C18.539 21.1181 18.7918 20.7481 19.0599 20.3563C19.3363 19.9527 19.6799 19.4508 19.9427 18.0327C20.069 17.3472 20.4663 17.1563 20.729 17.0299C21.0118 16.8945 21.3027 16.7545 21.4054 15.3908C21.4045 14.6963 21.0927 14.5072 21.0799 14.4999C20.9127 14.4036 20.8045 14.2008 20.8399 14.0118C21.0654 12.8036 21.4363 9.03539 20.2208 7.61994C19.3908 6.65448 18.0827 6.62812 17.8336 6.63812C17.7918 6.63448 17.7508 6.63358 17.7118 6.62358C17.5936 6.59358 17.3936 6.49085 17.3327 6.38539C17.0854 5.96176 14.9318 5.10994 11.9599 6.31267C9.02266 7.50176 9.0163 10.0508 9.39721 12.3872C9.52266 13.2572 9.65994 14.009 9.66085 14.0127C9.69812 14.2172 9.59176 14.4208 9.40357 14.5072C9.4063 14.5072 9.09539 14.6972 9.09539 15.4236C9.19721 16.7518 9.48903 16.8927 9.77085 17.0281C10.0336 17.1545 10.4318 17.3454 10.5581 18.0308C10.8199 19.449 11.1636 19.9508 11.4399 20.3545C11.709 20.7463 11.9618 21.1163 11.9618 21.9718C11.9618 24.6027 10.9699 25.9099 7.81085 27.2054Z" fill="#9EE8A6" stroke="#9EE8A6" stroke-width="0.5"/>
</svg>
