<svg width="6" height="39" viewBox="0 0 6 39" fill="none" xmlns="http://www.w3.org/2000/svg">
<rect width="6" height="39" fill="#EAEAEA"/>
<g clip-path="url(#clip0_0_1)">
<rect width="1358" height="5340" transform="translate(-450 -2130)" fill="white"/>
<mask id="path-1-inside-1_0_1" fill="white">
<path d="M5.87181 6.75979V0C5.87181 0 5.95974 3.17015 5.87181 6.75979V38.9831C5.87181 38.9831 5.87184 31.3559 4.9491 26.6949C4.02636 22.0339 0 20.8684 0 20.8684C0 20.8684 3.69729 19.4915 4.9491 15.678C5.55384 13.8357 5.78963 10.1145 5.87181 6.75979Z"/>
</mask>
<path d="M5.87181 6.75979V0C5.87181 0 5.95974 3.17015 5.87181 6.75979V38.9831C5.87181 38.9831 5.87184 31.3559 4.9491 26.6949C4.02636 22.0339 0 20.8684 0 20.8684C0 20.8684 3.69729 19.4915 4.9491 15.678C5.55384 13.8357 5.78963 10.1145 5.87181 6.75979Z" fill="#02BC4D"/>
<path d="M5.87181 0L6.87142 -0.0277281L4.87181 0H5.87181ZM0 20.8684L-0.348983 19.9312L-3.18514 20.9874L-0.278057 21.8289L0 20.8684ZM4.9491 15.678L3.99898 15.3661V15.3661L4.9491 15.678ZM5.87181 0H4.87181V6.75979H5.87181H6.87181V0H5.87181ZM5.87181 6.75979H4.87181V38.9831H5.87181H6.87181V6.75979H5.87181ZM0 20.8684C0.348983 21.8055 0.349361 21.8054 0.349754 21.8052C0.349903 21.8052 0.350311 21.805 0.350611 21.8049C0.35121 21.8047 0.351867 21.8044 0.352581 21.8042C0.354009 21.8036 0.355665 21.803 0.357544 21.8023C0.361304 21.8009 0.365962 21.7991 0.371494 21.7969C0.382559 21.7927 0.397127 21.7869 0.415008 21.7797C0.45076 21.7654 0.499812 21.7451 0.560621 21.7186C0.682153 21.6657 0.851185 21.5878 1.05527 21.4826C1.46249 21.2728 2.01486 20.9516 2.60997 20.4996C3.79659 19.5983 5.19124 18.1467 5.89922 15.9898L4.9491 15.678L3.99898 15.3661C3.45514 17.0228 2.37525 18.1664 1.40027 18.9069C0.914583 19.2758 0.464397 19.5372 0.139249 19.7047C-0.0228437 19.7882 -0.152442 19.8477 -0.237995 19.885C-0.280729 19.9036 -0.312333 19.9166 -0.331352 19.9242C-0.340857 19.928 -0.347202 19.9305 -0.350206 19.9317C-0.351707 19.9323 -0.352371 19.9325 -0.352175 19.9324C-0.352077 19.9324 -0.351764 19.9323 -0.351233 19.9321C-0.350968 19.932 -0.350648 19.9319 -0.350273 19.9317C-0.350085 19.9317 -0.349763 19.9315 -0.349669 19.9315C-0.349333 19.9314 -0.348983 19.9312 0 20.8684ZM4.9491 15.678L5.89922 15.9898C6.23928 14.9539 6.45657 13.4666 6.60224 11.8773C6.74987 10.2666 6.83013 8.47326 6.87151 6.78428L5.87181 6.75979L4.87211 6.7353C4.8313 8.40107 4.75258 10.1456 4.61059 11.6948C4.46663 13.2653 4.26366 14.5598 3.99898 15.3661L4.9491 15.678ZM5.87181 6.75979L6.87151 6.78428C6.91583 4.97506 6.9158 3.27342 6.90475 2.02492C6.89921 1.40033 6.89091 0.888327 6.88399 0.531981C6.88052 0.353791 6.8774 0.214472 6.87513 0.119405C6.874 0.0718698 6.87308 0.0353935 6.87244 0.0106484C6.87212 -0.00172435 6.87187 -0.0111647 6.8717 -0.0175886C6.87161 -0.0208006 6.87155 -0.0232586 6.8715 -0.024952C6.87148 -0.0257987 6.87146 -0.0264542 6.87145 -0.0269174C6.87144 -0.0271489 6.87144 -0.0273324 6.87143 -0.0274675C6.87143 -0.0275351 6.87143 -0.0276003 6.87143 -0.0276341C6.87143 -0.0276871 6.87142 -0.0277281 5.87181 0C4.87219 0.0277281 4.87219 0.0277113 4.87219 0.0277066C4.87219 0.0277211 4.87219 0.0277285 4.87219 0.0277575C4.8722 0.0278154 4.8722 0.0279216 4.8722 0.0280757C4.87221 0.0283839 4.87222 0.028884 4.87224 0.0295748C4.87228 0.0309562 4.87234 0.0331001 4.87242 0.0359958C4.87257 0.0417874 4.87281 0.0505863 4.87311 0.0623089C4.87371 0.0857542 4.8746 0.120892 4.8757 0.167052C4.8779 0.259374 4.88096 0.395766 4.88436 0.570866C4.89117 0.921099 4.89936 1.42598 4.90482 2.04263C4.91575 3.27662 4.91572 4.95487 4.87211 6.7353L5.87181 6.75979ZM5.87181 38.9831C6.87181 38.9831 6.87181 38.983 6.87181 38.9828C6.87181 38.9828 6.87181 38.9826 6.87181 38.9825C6.87181 38.9822 6.87181 38.9817 6.87181 38.9812C6.87181 38.9801 6.87181 38.9786 6.8718 38.9766C6.8718 38.9725 6.87179 38.9667 6.87178 38.9591C6.87175 38.9439 6.87169 38.9215 6.87158 38.8923C6.87135 38.8339 6.87089 38.7483 6.86997 38.6379C6.86815 38.4173 6.8645 38.0978 6.85723 37.7002C6.84268 36.9053 6.8136 35.7967 6.75541 34.5406C6.6397 32.0431 6.40675 28.9086 5.93006 26.5007L4.9491 26.6949L3.96814 26.8891C4.41419 29.1423 4.64259 32.1518 4.75755 34.6331C4.81469 35.8665 4.84328 36.9559 4.85756 37.7368C4.8647 38.1271 4.86827 38.4398 4.87004 38.6545C4.87093 38.7618 4.87137 38.8446 4.87159 38.9002C4.8717 38.928 4.87176 38.949 4.87178 38.963C4.8718 38.9699 4.8718 38.9751 4.87181 38.9785C4.87181 38.9801 4.87181 38.9814 4.87181 38.9821C4.87181 38.9825 4.87181 38.9828 4.87181 38.9829C4.87181 38.983 4.87181 38.983 4.87181 38.9831C4.87181 38.9831 4.87181 38.983 5.87181 38.9831ZM4.9491 26.6949L5.93006 26.5007C5.41318 23.8898 4.01543 22.2361 2.74307 21.2449C2.11124 20.7527 1.51133 20.4239 1.06493 20.2164C0.841165 20.1125 0.654195 20.0382 0.51865 19.9885C0.450817 19.9637 0.395672 19.945 0.355022 19.9317C0.33469 19.9251 0.317964 19.9199 0.305067 19.9159C0.298618 19.9139 0.293124 19.9123 0.288614 19.9109C0.286359 19.9102 0.284349 19.9097 0.282588 19.9091C0.281708 19.9089 0.28089 19.9086 0.280135 19.9084C0.279757 19.9083 0.279237 19.9082 0.279049 19.9081C0.278545 19.908 0.278057 19.9078 0 20.8684C-0.278057 21.8289 -0.278514 21.8288 -0.278956 21.8287C-0.279084 21.8286 -0.279512 21.8285 -0.279767 21.8284C-0.280277 21.8283 -0.280729 21.8282 -0.281121 21.8281C-0.281905 21.8278 -0.282454 21.8277 -0.282771 21.8276C-0.283403 21.8274 -0.283108 21.8275 -0.28191 21.8278C-0.279514 21.8286 -0.273519 21.8304 -0.264135 21.8335C-0.245355 21.8396 -0.213095 21.8505 -0.16903 21.8666C-0.0807785 21.8989 0.0540198 21.9521 0.222145 22.0302C0.559522 22.187 1.02387 22.4408 1.51397 22.8226C2.48548 23.5795 3.56228 24.839 3.96814 26.8891L4.9491 26.6949Z" fill="#02BC4D" mask="url(#path-1-inside-1_0_1)"/>
</g>
<defs>
<clipPath id="clip0_0_1">
<rect width="1358" height="5340" fill="white" transform="translate(-450 -2130)"/>
</clipPath>
</defs>
</svg>
