<svg width="50" height="50" viewBox="0 0 50 50" fill="none" xmlns="http://www.w3.org/2000/svg">
<circle cx="25" cy="25" r="25" fill="url(#paint0_linear_9768_1824)"/>
<path d="M12.375 13.4689V9.09376C12.375 8.48914 12.8641 8 13.4689 8C14.0734 8 14.5625 8.48914 14.5625 9.09376V13.4689C14.5625 14.0734 14.0734 14.5625 13.4689 14.5625C12.8641 14.5626 12.375 14.0734 12.375 13.4689ZM30.969 14.5626C31.5733 14.5626 32.0627 14.0734 32.0627 13.469V9.09376C32.0627 8.48914 31.5733 8 30.969 8C30.3644 8 29.8749 8.48914 29.8749 9.09376V13.4689C29.8749 14.0734 30.3644 14.5626 30.969 14.5626ZM43 34.2499C43 39.0826 39.0823 43.0002 34.25 43.0002C29.418 43.0002 25.5 39.0826 25.5 34.2499C25.5 29.4179 29.418 25.5001 34.25 25.5001C39.0823 25.5001 43 29.4179 43 34.2499ZM40.8128 34.2499C40.8128 30.6316 37.869 27.6875 34.2501 27.6875C30.6314 27.6875 27.6876 30.6315 27.6876 34.2499C27.6876 37.8689 30.6314 40.8126 34.2501 40.8126C37.869 40.8126 40.8128 37.8689 40.8128 34.2499ZM16.7501 21.1251H12.375V25.5001H16.7501V21.1251ZM12.375 32.0627H16.7501V27.6875H12.375V32.0627ZM18.9375 25.5001H23.3127V21.1251H18.9375V25.5001ZM18.9375 32.0627H23.3127V27.6875H18.9375V32.0627ZM10.1876 34.0324V18.9375H34.2501V23.3126H36.4376V14.7806C36.4376 13.4518 35.3779 12.375 34.0686 12.375H33.1563V13.469C33.1563 14.6737 32.1756 15.6564 30.9691 15.6564C29.7622 15.6564 28.7815 14.6737 28.7815 13.469V12.375H15.6562V13.469C15.6562 14.6737 14.6757 15.6564 13.469 15.6564C12.2619 15.6564 11.2814 14.6737 11.2814 13.469V12.375H10.3702C9.0608 12.375 8 13.4518 8 14.7806V34.0325C8 35.3569 9.0608 36.4379 10.3702 36.4379H23.3127V34.25H10.3702C10.2711 34.2499 10.1876 34.1475 10.1876 34.0324ZM29.8749 25.5001V21.1251H25.5001V25.5001H29.8749ZM37.5313 34.2499H34.25V30.9685C34.25 30.3643 33.7608 29.8751 33.1562 29.8751C32.5516 29.8751 32.0627 30.3643 32.0627 30.9685V35.344C32.0627 35.9484 32.5516 36.4378 33.1562 36.4378H37.5313C38.136 36.4378 38.6251 35.9484 38.6251 35.344C38.6251 34.7394 38.136 34.2499 37.5313 34.2499Z" fill="white"/>
<defs>
<linearGradient id="paint0_linear_9768_1824" x1="25" y1="0" x2="25" y2="50" gradientUnits="userSpaceOnUse">
<stop stop-color="#7D7D7D"/>
<stop offset="1" stop-color="#0FC621"/>
</linearGradient>
</defs>
</svg>
