<svg width="53" height="66" viewBox="0 0 53 66" fill="none" xmlns="http://www.w3.org/2000/svg">
<path d="M7 4C7 1.79086 8.79086 0 11 0H37.2618C38.3705 0 39.4295 0.460187 40.186 1.27073L46 7.5L51.8284 13.3284C52.5786 14.0786 53 15.096 53 16.1569V54C53 56.2091 51.2091 58 49 58H11C8.79086 58 7 56.2091 7 54V4Z" fill="white"/>
<rect y="8" width="46" height="58" rx="4" fill="url(#paint0_linear_23_8640)" fill-opacity="0.5"/>
<path d="M31.8697 25.8539C31.2852 25.8539 18.7884 25.8539 18.7884 25.8539C18.2039 25.8539 17.7295 25.366 17.7295 24.7647C17.7295 24.1635 18.2039 23.6755 18.7884 23.6755H31.8697C32.4542 23.6755 32.9286 24.1635 32.9286 24.7647C32.9286 25.366 32.4542 25.8539 31.8697 25.8539Z" fill="#02BC4D"/>
<path d="M31.8697 35.5239H18.7884C18.2039 35.5239 17.7295 35.0359 17.7295 34.4347C17.7295 33.8334 18.2039 33.3455 18.7884 33.3455H31.8697C32.4542 33.3455 32.9286 33.8334 32.9286 34.4347C32.9286 35.0359 32.4542 35.5239 31.8697 35.5239Z" fill="#02BC4D"/>
<path d="M31.8697 45.2004H18.7884C18.2039 45.2004 17.7295 44.7124 17.7295 44.1112C17.7295 43.5099 18.2039 43.022 18.7884 43.022H31.8697C32.4542 43.022 32.9286 43.5099 32.9286 44.1112C32.9286 44.7124 32.4542 45.2004 31.8697 45.2004Z" fill="#02BC4D"/>
<path d="M43.1402 35.5239H30.0589C29.4744 35.5239 29 35.0359 29 34.4347C29 33.8334 29.4744 33.3455 30.0589 33.3455H43.1402C43.7247 33.3455 44.1991 33.8334 44.1991 34.4347C44.1991 35.0359 43.7247 35.5239 43.1402 35.5239Z" fill="#02BC4D"/>
<path d="M43.1402 45.2004H30.0589C29.4744 45.2004 29 44.7124 29 44.1112C29 43.5099 29.4744 43.022 30.0589 43.022H43.1402C43.7247 43.022 44.1991 43.5099 44.1991 44.1112C44.1991 44.7124 43.7247 45.2004 43.1402 45.2004Z" fill="#02BC4D"/>
<path d="M52.0369 16.0595H38.6181C38.0869 16.0595 37.6558 15.6187 37.6558 15.0756V1.35357C37.6558 0.810434 38.0869 0.369629 38.6181 0.369629C39.1493 0.369629 39.5804 0.810434 39.5804 1.35357V14.0917H52.0369C52.5681 14.0917 52.9992 14.5325 52.9992 15.0756C52.9992 15.6187 52.57 16.0595 52.0369 16.0595Z" fill="#02BC4D"/>
<defs>
<linearGradient id="paint0_linear_23_8640" x1="11.9853" y1="0.749997" x2="63.8796" y2="29.4471" gradientUnits="userSpaceOnUse">
<stop stop-color="white"/>
<stop offset="0.767956" stop-color="#B0B0B0" stop-opacity="0.35"/>
</linearGradient>
</defs>
</svg>
