<svg width="60" height="66" viewBox="0 0 60 66" fill="none" xmlns="http://www.w3.org/2000/svg">
<path d="M30.4348 66C14.1328 66 0.869629 52.7543 0.869629 36.4737C0.869629 20.1931 14.1328 6.94739 30.4348 6.94739C46.7369 6.94739 60.0001 20.1931 60.0001 36.4737C60.0001 52.7543 46.7369 66 30.4348 66Z" fill="white"/>
<path d="M26.9565 53.8421C12.0929 53.8421 0 41.7652 0 26.9211C0 12.0769 12.0929 0 26.9565 0C41.8202 0 53.913 12.0769 53.913 26.9211C53.913 41.7652 41.8202 53.8421 26.9565 53.8421Z" fill="url(#paint0_linear_23_8634)" fill-opacity="0.5"/>
<path d="M30.4346 65.9999C24.2797 65.9999 18.3648 64.1067 13.3244 60.5242C13.0556 60.3327 12.9123 60.0052 12.9553 59.6777C12.9983 59.3503 13.2205 59.0711 13.5323 58.9566C20.9612 56.2097 22.1599 53.98 22.1599 49.7068C22.1599 48.5776 21.9055 48.2072 21.4468 47.5344C20.8394 46.6504 20.0079 45.4389 19.4238 42.2751C19.3378 41.8206 19.2643 41.7848 18.8576 41.5879C17.7717 41.0654 16.7737 40.3138 16.5121 36.8852C16.5121 35.2246 17.0855 34.3066 17.5603 33.8288C17.4564 33.2383 17.2861 32.22 17.1267 31.1106C16.315 26.1412 16.2791 20.0552 23.278 17.226C29.3774 14.7566 34.2458 16.1058 35.7743 17.7146C36.8565 17.7486 39.6482 18.0313 41.5905 20.2878C44.5793 23.7594 43.6279 31.6743 43.3017 33.8198C43.7784 34.2869 44.3571 35.1924 44.3571 36.8172C44.0955 40.3138 43.0975 41.0672 42.0098 41.5879C41.6013 41.7848 41.5278 41.8188 41.4436 42.2751C40.8595 45.4389 40.0299 46.6504 39.4224 47.5344C38.9619 48.2054 38.7093 48.5776 38.7093 49.7068C38.7093 53.98 39.908 56.2097 47.337 58.9566C47.6487 59.0711 47.8709 59.3485 47.9139 59.6777C47.9569 60.007 47.8136 60.3327 47.5448 60.5242C42.5044 64.1067 36.5896 65.9999 30.4346 65.9999ZM15.7721 60.007C20.1835 62.7628 25.2186 64.2105 30.4346 64.2105C35.6506 64.2105 40.6857 62.7628 45.0972 60.007C38.8723 57.4552 36.9175 54.8819 36.9175 49.7086C36.9175 48.0247 37.4156 47.2964 37.9442 46.5251C38.4889 45.7306 39.1662 44.7428 39.684 41.9512C39.9331 40.6019 40.7161 40.2262 41.234 39.9774C41.7912 39.7108 42.3646 39.4352 42.5671 36.751C42.5653 35.3838 41.9507 35.0116 41.9256 34.9973C41.5959 34.8076 41.3827 34.4086 41.4526 34.0364C41.897 31.6582 42.628 24.2408 40.2323 21.4546C38.5964 19.5542 36.018 19.5023 35.527 19.5219C35.4446 19.5148 35.3639 19.513 35.2869 19.4933C35.0539 19.4343 34.6597 19.232 34.5397 19.0245C34.0523 18.1906 29.8075 16.5138 23.95 18.8813C18.1606 21.2219 18.148 26.2396 18.8988 30.8386C19.1461 32.5511 19.4166 34.031 19.4184 34.0382C19.4919 34.4408 19.2823 34.8416 18.9113 35.0116C18.9167 35.0116 18.3039 35.3856 18.3039 36.8154C18.5046 39.4298 19.0798 39.7072 19.6352 39.9738C20.1531 40.2226 20.9379 40.5984 21.187 41.9476C21.703 44.7392 22.3803 45.727 22.925 46.5215C23.4554 47.2928 23.9536 48.0211 23.9536 49.705C23.9536 54.8837 21.9987 57.457 15.7721 60.007Z" fill="#02BC4D"/>
<defs>
<linearGradient id="paint0_linear_23_8634" x1="-15.4604" y1="24.1498" x2="69.408" y2="32.598" gradientUnits="userSpaceOnUse">
<stop offset="0.232034" stop-color="white"/>
<stop offset="0.651934" stop-color="#B0B0B0" stop-opacity="0.3"/>
</linearGradient>
</defs>
</svg>
