<svg width="54" height="68" viewBox="0 0 54 68" fill="none" xmlns="http://www.w3.org/2000/svg">
<path d="M28 64C27.8886 64 27.779 63.9797 27.675 63.9408C27.4187 63.8466 2 54.0441 2 25.0857V3.92424C2 3.41406 2.416 3 2.92857 3C2.92857 3 21.325 0 30 0C38.675 0 53.0714 3 53.0714 3C53.584 3 54 3.41406 54 3.92424V25.0857C54 54.0441 28.5813 63.8447 28.325 63.9408C28.221 63.9797 28.1114 64 28 64Z" fill="white"/>
<path d="M26 68C25.8886 68 25.779 67.9797 25.675 67.9408C25.4187 67.8466 0 58.0441 0 29.0857V7.92424C0 7.5597 0.212388 7.24424 0.520635 7.09384C0.772875 6.97076 1.06686 6.97045 1.34165 6.91335C3.93732 6.37405 18.1389 3.5 26 3.5C33.8611 3.5 48.0627 6.37405 50.6583 6.91335C50.9331 6.97045 51.2271 6.97076 51.4794 7.09384C51.7876 7.24424 52 7.5597 52 7.92424V29.0857C52 58.0441 26.5813 67.8447 26.325 67.9408C26.221 67.9797 26.1114 68 26 68Z" fill="url(#paint0_linear_23_8669)" fill-opacity="0.5"/>
<path d="M28 38C27.6788 38 27.3774 37.8454 27.1895 37.585L18.5293 25.585C18.3097 25.2806 18.2784 24.8791 18.4492 24.5449C18.6202 24.2106 18.9644 24 19.3398 24L36.6602 24C37.0356 24 37.3798 24.2107 37.5508 24.5449C37.7216 24.8791 37.6904 25.2806 37.4707 25.585L28.8105 37.585L28.7354 37.6777C28.5473 37.8818 28.2811 38 28 38Z" stroke="#02BC4D" stroke-width="2" stroke-linecap="round" stroke-linejoin="round"/>
<defs>
<linearGradient id="paint0_linear_23_8669" x1="26" y1="95" x2="62.7088" y2="34.5943" gradientUnits="userSpaceOnUse">
<stop stop-color="white"/>
<stop offset="0.767956" stop-color="#B0B0B0" stop-opacity="0.35"/>
</linearGradient>
</defs>
</svg>
