<svg width="71" height="49" viewBox="0 0 71 49" fill="none" xmlns="http://www.w3.org/2000/svg">
<rect y="6" width="66" height="43" rx="4" fill="url(#paint0_linear_23_8683)"/>
<rect x="5" width="66" height="43" rx="4" fill="url(#paint1_linear_23_8683)" fill-opacity="0.5"/>
<path d="M57.0928 49C56.5998 49 56.1997 48.599 56.1997 48.1049C56.1997 43.4578 59.9723 39.677 64.6095 39.677C65.1025 39.677 65.5026 40.078 65.5026 40.5721C65.5026 41.0661 65.1025 41.4671 64.6095 41.4671C60.9566 41.4671 57.986 44.4459 57.986 48.1049C57.986 48.6008 57.5876 49 57.0928 49Z" fill="#02BC4D"/>
<path d="M0.893139 14.8154C0.400126 14.8154 0 14.4144 0 13.9204C0 13.4263 0.400126 13.0253 0.893139 13.0253C4.54608 13.0253 7.51666 10.0465 7.51666 6.3875C7.51666 5.89342 7.91678 5.49243 8.40979 5.49243C8.90281 5.49243 9.30293 5.89342 9.30293 6.3875C9.30293 11.0347 5.53032 14.8154 0.893139 14.8154Z" fill="#02BC4D"/>
<mask id="path-5-inside-1_23_8683" fill="white">
<path d="M30.2593 39.601C29.7663 39.601 29.3662 39.2367 29.3662 38.7879V18.5933C29.3662 18.1445 29.7663 17.7802 30.2593 17.7802C30.7524 17.7802 31.1525 18.1445 31.1525 18.5933V38.7879C31.1525 39.2367 30.7524 39.601 30.2593 39.601Z"/>
</mask>
<path d="M30.2593 39.601C29.7663 39.601 29.3662 39.2367 29.3662 38.7879V18.5933C29.3662 18.1445 29.7663 17.7802 30.2593 17.7802C30.7524 17.7802 31.1525 18.1445 31.1525 18.5933V38.7879C31.1525 39.2367 30.7524 39.601 30.2593 39.601Z" fill="#02BC4D"/>
<path d="M30.2593 39.601V37.6751C30.6561 37.6751 31.2922 38.007 31.2922 38.7879H29.3662H27.4402C27.4402 40.4664 28.8766 41.527 30.2593 41.527V39.601ZM29.3662 38.7879H31.2922V18.5933H29.3662H27.4402V38.7879H29.3662ZM29.3662 18.5933H31.2922C31.2922 19.3742 30.6561 19.7061 30.2593 19.7061V17.7802V15.8542C28.8766 15.8542 27.4402 16.9147 27.4402 18.5933H29.3662ZM30.2593 17.7802V19.7061C29.8626 19.7061 29.2265 19.3742 29.2265 18.5933H31.1525H33.0785C33.0785 16.9147 31.6421 15.8542 30.2593 15.8542V17.7802ZM31.1525 18.5933H29.2265V38.7879H31.1525H33.0785V18.5933H31.1525ZM31.1525 38.7879H29.2265C29.2265 38.007 29.8626 37.6751 30.2593 37.6751V39.601V41.527C31.6421 41.527 33.0785 40.4664 33.0785 38.7879H31.1525Z" fill="url(#paint2_linear_23_8683)" fill-opacity="0.8" mask="url(#path-5-inside-1_23_8683)"/>
<path d="M27.6147 31.0298H33.9332C37.5372 31.0298 40.4588 28.3001 40.4588 24.9328C40.4588 21.5655 37.5372 18.8358 33.9332 18.8358H30.8258" stroke="#02BC4D" stroke-width="1.93"/>
<path d="M27.2935 35.8806H38.2109" stroke="#02BC4D" stroke-width="1.92599"/>
<defs>
<linearGradient id="paint0_linear_23_8683" x1="0" y1="6" x2="62.9938" y2="48.6083" gradientUnits="userSpaceOnUse">
<stop offset="0.674033" stop-color="white"/>
<stop offset="1" stop-color="white" stop-opacity="0.8"/>
</linearGradient>
<linearGradient id="paint1_linear_23_8683" x1="22.1963" y1="-5.375" x2="67.5163" y2="43.1263" gradientUnits="userSpaceOnUse">
<stop offset="0.342541" stop-color="white"/>
<stop offset="0.651934" stop-color="#B0B0B0" stop-opacity="0.2"/>
</linearGradient>
<linearGradient id="paint2_linear_23_8683" x1="30.2593" y1="17.7802" x2="30.2593" y2="39.601" gradientUnits="userSpaceOnUse">
<stop offset="0.331492" stop-color="#0FC621" stop-opacity="0.6"/>
<stop offset="0.624309" stop-color="#0FC621"/>
</linearGradient>
</defs>
</svg>
