<svg width="6" height="39" viewBox="0 0 6 39" fill="none" xmlns="http://www.w3.org/2000/svg">
<mask id="path-1-inside-1_0_1290" fill="white">
<path d="M5.87181 6.75978V0C5.87181 0 5.95974 3.17014 5.87181 6.75978V38.9831C5.87181 38.9831 5.87184 31.3559 4.9491 26.6949C4.02636 22.0339 0 20.8684 0 20.8684C0 20.8684 3.69729 19.4915 4.9491 15.678C5.55384 13.8357 5.78963 10.1145 5.87181 6.75978Z"/>
</mask>
<path d="M5.87181 6.75978V0C5.87181 0 5.95974 3.17014 5.87181 6.75978V38.9831C5.87181 38.9831 5.87184 31.3559 4.9491 26.6949C4.02636 22.0339 0 20.8684 0 20.8684C0 20.8684 3.69729 19.4915 4.9491 15.678C5.55384 13.8357 5.78963 10.1145 5.87181 6.75978Z" fill="white"/>
<path d="M5.87181 0L7.87104 -0.0554563L3.87181 0H5.87181ZM0 20.8684L-0.697966 18.9941L-6.37028 21.1065L-0.556114 22.7895L0 20.8684ZM4.9491 15.678L6.84934 16.3017V16.3017L4.9491 15.678ZM4.9491 26.6949L6.91102 26.3065V26.3065L4.9491 26.6949ZM3.87181 0V6.75978H7.87181V0H3.87181ZM3.87181 6.75978V38.9831H7.87181V6.75978H3.87181ZM0 20.8684C0.697966 22.7426 0.698708 22.7424 0.699465 22.7421C0.699736 22.742 0.700509 22.7417 0.701052 22.7415C0.702139 22.7411 0.703285 22.7406 0.704489 22.7402C0.706896 22.7393 0.709536 22.7383 0.712404 22.7372C0.718141 22.735 0.724796 22.7325 0.732344 22.7296C0.747439 22.7237 0.766119 22.7164 0.788187 22.7075C0.832307 22.6898 0.890082 22.6658 0.959929 22.6354C1.09945 22.5746 1.2882 22.4875 1.51328 22.3716C1.96153 22.1406 2.565 21.7895 3.21482 21.2959C4.50726 20.3143 6.05929 18.7086 6.84934 16.3017L3.04886 15.0542C2.58709 16.4609 1.66458 17.4504 0.795419 18.1106C0.364445 18.4379 -0.0346477 18.6694 -0.318762 18.8158C-0.459858 18.8885 -0.569739 18.9387 -0.637304 18.9681C-0.670999 18.9828 -0.69388 18.9922 -0.704532 18.9965C-0.709848 18.9986 -0.712082 18.9995 -0.711056 18.9991C-0.710541 18.9989 -0.709208 18.9984 -0.707035 18.9975C-0.705948 18.9971 -0.704651 18.9966 -0.703141 18.9961C-0.702385 18.9958 -0.701577 18.9955 -0.700714 18.9951C-0.700284 18.995 -0.699596 18.9947 -0.699381 18.9946C-0.69868 18.9944 -0.697966 18.9941 0 20.8684ZM6.84934 16.3017C7.22709 15.1509 7.45153 13.5672 7.59806 11.9686C7.74852 10.3271 7.82955 8.50935 7.87121 6.80876L3.87241 6.7108C3.83189 8.36497 3.75393 10.0852 3.61476 11.6035C3.47167 13.1647 3.27584 14.3627 3.04886 15.0542L6.84934 16.3017ZM7.87121 6.80876C7.91588 4.98515 7.91583 3.27182 7.90471 2.01607C7.89914 1.3875 7.89079 0.87194 7.8838 0.512538C7.8803 0.332803 7.87715 0.192021 7.87485 0.0955814C7.8737 0.0473585 7.87276 0.010213 7.87211 -0.015182C7.87178 -0.0278798 7.87152 -0.0376408 7.87134 -0.044381C7.87125 -0.0477511 7.87118 -0.0503661 7.87113 -0.0522154C7.8711 -0.0531401 7.87108 -0.0538734 7.87107 -0.054414C7.87106 -0.0546843 7.87105 -0.0549064 7.87105 -0.0550801C7.87105 -0.055167 7.87105 -0.0552611 7.87104 -0.0553045C7.87104 -0.0553864 7.87104 -0.0554563 5.87181 0C3.87258 0.0554563 3.87258 0.0554106 3.87258 0.055377C3.87258 0.0553819 3.87257 0.0553603 3.87258 0.05537C3.87258 0.0553894 3.87258 0.0554569 3.87258 0.0555723C3.87259 0.055803 3.8726 0.0562255 3.87262 0.0568382C3.87265 0.0580637 3.8727 0.0600505 3.87278 0.0627881C3.87292 0.0682635 3.87315 0.0767417 3.87344 0.0881391C3.87403 0.110935 3.8749 0.145403 3.87598 0.190875C3.87815 0.281824 3.88118 0.416754 3.88455 0.590307C3.8913 0.937484 3.89944 1.43881 3.90486 2.05149C3.91573 3.27821 3.91567 4.94478 3.87241 6.7108L7.87121 6.80876ZM5.87181 38.9831C7.87181 38.9831 7.87181 38.9829 7.87181 38.9827C7.87181 38.9826 7.87181 38.9824 7.87181 38.9822C7.87181 38.9818 7.87181 38.9813 7.87181 38.9807C7.87181 38.9795 7.87181 38.9778 7.8718 38.9756C7.8718 38.9713 7.87179 38.9651 7.87178 38.9572C7.87175 38.9413 7.87169 38.9182 7.87157 38.8884C7.87133 38.8286 7.87086 38.7415 7.86994 38.6297C7.86809 38.406 7.8644 38.0832 7.85706 37.6819C7.84239 36.88 7.81306 35.7618 7.75434 34.4943C7.63826 31.9888 7.40302 28.7917 6.91102 26.3065L2.98718 27.0833C3.41792 29.2591 3.64404 32.2062 3.75862 34.6794C3.81524 35.9014 3.84357 36.9812 3.85773 37.7551C3.8648 38.1417 3.86832 38.4511 3.87008 38.6628C3.87095 38.7686 3.87138 38.8499 3.8716 38.9042C3.87171 38.9313 3.87176 38.9516 3.87178 38.9649C3.8718 38.9715 3.8718 38.9764 3.87181 38.9794C3.87181 38.9809 3.87181 38.982 3.87181 38.9826C3.87181 38.9829 3.87181 38.9831 3.87181 38.9832C3.87181 38.9832 3.87181 38.9832 3.87181 38.9832C3.87181 38.9831 3.87181 38.983 5.87181 38.9831ZM6.91102 26.3065C6.33863 23.4152 4.7804 21.5644 3.35762 20.456C2.65493 19.9086 1.98723 19.5423 1.48632 19.3096C1.23474 19.1927 1.02168 19.1078 0.86249 19.0495C0.782772 19.0203 0.716185 18.9977 0.6646 18.9809C0.638795 18.9725 0.616703 18.9655 0.598556 18.9599C0.589481 18.9572 0.581388 18.9547 0.574306 18.9526C0.570765 18.9515 0.567476 18.9506 0.564443 18.9497C0.562927 18.9492 0.561474 18.9488 0.560085 18.9484C0.559392 18.9482 0.558398 18.9479 0.558051 18.9478C0.557075 18.9475 0.556114 18.9473 0 20.8684C-0.556114 22.7895 -0.557044 22.7892 -0.557959 22.789C-0.558244 22.7889 -0.559146 22.7886 -0.559718 22.7885C-0.560861 22.7881 -0.561947 22.7878 -0.562975 22.7875C-0.565032 22.7869 -0.566861 22.7864 -0.568463 22.7859C-0.571667 22.7849 -0.573971 22.7842 -0.575399 22.7838C-0.578253 22.7829 -0.577624 22.7831 -0.573714 22.7844C-0.565868 22.7869 -0.54505 22.7938 -0.51287 22.8056C-0.448265 22.8293 -0.339553 22.8719 -0.199247 22.9371C0.0836173 23.0685 0.480188 23.2849 0.899422 23.6115C1.72051 24.2512 2.63683 25.3136 2.98718 27.0833L6.91102 26.3065Z" fill="white" mask="url(#path-1-inside-1_0_1290)"/>
</svg>
