<svg width="23" height="23" viewBox="0 0 23 23" fill="none" xmlns="http://www.w3.org/2000/svg">
<path d="M18.1787 22.5C17.2635 22.5 16.1582 22.2706 14.9433 21.8125C12.2777 20.8069 9.37896 18.8207 6.77915 16.2204C4.17934 13.62 2.1936 10.72 1.18815 8.05304C0.272965 5.62955 0.270746 3.64044 1.18075 2.73024C1.31245 2.59852 1.44636 2.45792 1.58397 2.31362C2.41481 1.44043 3.37587 0.448092 4.59735 0.502112C5.45557 0.537632 6.28642 1.07043 7.13872 2.12863C9.65123 5.25511 8.51853 6.36955 7.20752 7.66158L6.97521 7.89098C6.76066 8.10558 6.35448 9.09866 10.1269 12.8712C11.3595 14.1033 12.4086 15.0046 13.2469 15.5499C13.7759 15.8933 14.7199 16.4113 15.1068 16.0243L15.3399 15.789C16.6302 14.4792 17.7444 13.3499 20.8695 15.8622C21.9282 16.7132 22.4601 17.5442 22.4957 18.4034C22.5467 19.6481 21.5553 20.5893 20.6808 21.4196C20.5373 21.5565 20.3967 21.689 20.2665 21.8192C19.8122 22.2728 19.0902 22.5 18.1787 22.5ZM4.50931 1.23915C3.62594 1.23915 2.82691 2.07979 2.12036 2.82274C1.97757 2.97222 1.83921 3.118 1.70382 3.25342C1.02613 3.93052 1.09567 5.71243 1.87991 7.79256C2.8491 10.3626 4.77492 13.1701 7.30222 15.6979C9.82953 18.2258 12.6358 20.1513 15.2045 21.1206C17.2842 21.9058 19.0657 21.9739 19.7434 21.2953C19.8788 21.1606 20.0231 21.023 20.1711 20.8824C20.9316 20.1594 21.7935 19.341 21.7566 18.4322C21.7307 17.8084 21.2764 17.1372 20.4056 16.4379C17.8013 14.3452 17.0741 15.0852 15.8667 16.3077L15.6299 16.5467C15.055 17.1247 14.1177 16.9981 12.8437 16.1693C11.9632 15.5966 10.8727 14.662 9.60388 13.3936C6.4736 10.2627 5.47185 8.34756 6.45214 7.36632L6.68815 7.13248C7.91481 5.92481 8.65466 5.19591 6.56164 2.59112C5.86175 1.72163 5.19071 1.26727 4.56702 1.24063C4.54778 1.23989 4.52781 1.23915 4.50931 1.23915Z" fill="#9EE8A6" stroke="#9EE8A6"/>
<path d="M18.3081 9.59223C18.2615 9.59223 18.2149 9.58335 18.169 9.56485C17.9796 9.48789 17.8879 9.27255 17.9656 9.08385C18.4361 7.92354 18.1668 6.60116 17.2819 5.71539C16.3727 4.80593 14.9751 4.55359 13.8024 5.08047C13.6182 5.16409 13.397 5.08269 13.3134 4.89621C13.2291 4.70973 13.3112 4.49069 13.4976 4.40707C14.9485 3.74995 16.679 4.06593 17.805 5.19295C18.9007 6.28888 19.2329 7.92502 18.6506 9.36209C18.5929 9.50417 18.4538 9.59223 18.3081 9.59223Z" fill="#9EE8A6" stroke="#9EE8A6"/>
<path d="M21.6109 10.9348C21.5643 10.9348 21.5177 10.9259 21.4718 10.9074C21.2817 10.8305 21.1907 10.6151 21.2683 10.4264C22.2782 7.93484 21.7034 5.09696 19.8027 3.1959C17.851 1.24379 14.8495 0.696194 12.334 1.83357C12.1476 1.91497 11.9286 1.83505 11.8442 1.64857C11.7606 1.46135 11.8427 1.24231 12.0292 1.15795C14.8236 -0.104483 18.1573 0.503055 20.3258 2.67199C22.4373 4.78394 23.0765 7.93632 21.9534 10.7039C21.8957 10.8475 21.7566 10.9348 21.6109 10.9348Z" fill="#9EE8A6" stroke="#9EE8A6"/>
</svg>
