<svg width="22" height="22" viewBox="0 0 22 22" fill="none" xmlns="http://www.w3.org/2000/svg">
<path d="M17.6787 22C16.7635 22 15.6582 21.7706 14.4433 21.3125C11.7777 20.3069 8.87896 18.3207 6.27915 15.7204C3.67934 13.12 1.6936 10.22 0.688152 7.55304C-0.227035 5.12955 -0.229254 3.14044 0.680754 2.23024C0.812446 2.09852 0.946358 1.95792 1.08397 1.81362C1.91481 0.940428 2.87587 -0.0519076 4.09735 0.00211213C4.95557 0.037632 5.78642 0.57043 6.63872 1.62863C9.15123 4.75511 8.01853 5.86955 6.70752 7.16158L6.47521 7.39098C6.26066 7.60558 5.85448 8.59866 9.62695 12.3712C10.8595 13.6033 11.9086 14.5046 12.7469 15.0499C13.2759 15.3933 14.2199 15.9113 14.6068 15.5243L14.8399 15.289C16.1302 13.9792 17.2444 12.8499 20.3695 15.3622C21.4282 16.2132 21.9601 17.0442 21.9957 17.9034C22.0467 19.1481 21.0553 20.0893 20.1808 20.9196C20.0373 21.0565 19.8967 21.189 19.7665 21.3192C19.3122 21.7728 18.5902 22 17.6787 22ZM4.00931 0.739149C3.12594 0.739149 2.32691 1.57979 1.62036 2.32274C1.47757 2.47222 1.33921 2.618 1.20382 2.75342C0.526126 3.43052 0.595672 5.21243 1.37991 7.29256C2.3491 9.86257 4.27492 12.6701 6.80222 15.1979C9.32953 17.7258 12.1358 19.6513 14.7045 20.6206C16.7842 21.4058 18.5657 21.4739 19.2434 20.7953C19.3788 20.6606 19.5231 20.523 19.6711 20.3824C20.4316 19.6594 21.2935 18.841 21.2566 17.9322C21.2307 17.3084 20.7764 16.6372 19.9056 15.9379C17.3013 13.8452 16.5741 14.5852 15.3667 15.8077L15.1299 16.0467C14.555 16.6247 13.6177 16.4981 12.3437 15.6693C11.4632 15.0966 10.3727 14.162 9.10388 12.8936C5.9736 9.76267 4.97185 7.84756 5.95214 6.86632L6.18815 6.63248C7.41481 5.42481 8.15466 4.69591 6.06164 2.09112C5.36175 1.22163 4.69071 0.767269 4.06702 0.740629C4.04778 0.739889 4.02781 0.739149 4.00931 0.739149Z" fill="#DAEADB"/>
<path d="M17.8081 9.09235C17.7615 9.09235 17.7149 9.08347 17.669 9.06497C17.4796 8.98801 17.3879 8.77267 17.4656 8.58397C17.9361 7.42366 17.6668 6.10129 16.7819 5.21551C15.8727 4.30605 14.4751 4.05371 13.3024 4.58059C13.1182 4.66421 12.897 4.58281 12.8134 4.39633C12.7291 4.20985 12.8112 3.99081 12.9976 3.90719C14.4485 3.25008 16.179 3.56606 17.305 4.69307C18.4007 5.78901 18.7329 7.42514 18.1506 8.86221C18.0929 9.00429 17.9538 9.09235 17.8081 9.09235Z" fill="#DAEADB"/>
<path d="M21.1109 10.4348C21.0643 10.4348 21.0177 10.4259 20.9718 10.4074C20.7817 10.3305 20.6907 10.1151 20.7683 9.92641C21.7782 7.43484 21.2034 4.59696 19.3027 2.6959C17.351 0.743792 14.3495 0.196194 11.834 1.33357C11.6476 1.41497 11.4286 1.33505 11.3442 1.14857C11.2606 0.961351 11.3427 0.742312 11.5292 0.657952C14.3236 -0.604483 17.6573 0.00305496 19.8258 2.17199C21.9373 4.28394 22.5765 7.43632 21.4534 10.2039C21.3957 10.3475 21.2566 10.4348 21.1109 10.4348Z" fill="#DAEADB"/>
</svg>
