<svg width="42" height="42" viewBox="0 0 42 42" fill="none" xmlns="http://www.w3.org/2000/svg">
<path d="M20.8333 0C15.308 0 10.0089 2.19493 6.10194 6.10194C2.19493 10.0089 0 15.308 0 20.8333C0 26.3587 2.19493 31.6577 6.10194 35.5647C10.0089 39.4717 15.308 41.6667 20.8333 41.6667C26.3587 41.6667 31.6577 39.4717 35.5647 35.5647C39.4717 31.6577 41.6667 26.3587 41.6667 20.8333C41.6667 15.308 39.4717 10.0089 35.5647 6.10194C31.6577 2.19493 26.3587 0 20.8333 0Z" fill="#1976D2"/>
<path d="M33.2679 14.6259C33.3158 14.4686 33.3387 14.3228 33.3325 14.1925C33.3168 13.8155 33.0575 13.5415 32.447 13.5415H29.72C29.0314 13.5415 28.7137 13.9582 28.5283 14.3759C28.5283 14.3759 26.8283 17.8748 24.8689 20.1821C24.2335 20.8498 23.9106 20.8332 23.5668 20.8332C23.3825 20.8332 22.9168 20.6103 22.9168 19.9988V14.5978C22.9168 13.8748 22.7366 13.5415 22.1543 13.5415H17.3116C16.8877 13.5415 16.6668 13.8748 16.6668 14.2092C16.6668 14.904 17.6022 15.0707 17.7085 17.0175V20.7915C17.7085 21.7082 17.5491 21.8748 17.2054 21.8748C16.2783 21.8748 14.4533 18.7498 13.2314 14.654C12.9668 13.8478 12.7022 13.5415 12.0137 13.5415H9.26058C8.46579 13.5415 8.3335 13.9311 8.3335 14.3478C8.3335 15.0988 8.9585 19.1592 12.37 23.828C14.8439 27.2134 18.1033 29.1665 20.9887 29.1665C22.7366 29.1665 22.9158 28.7217 22.9158 28.0269V24.9311C22.9168 24.0967 23.1075 23.9582 23.6637 23.9582C24.0606 23.9582 24.87 24.2186 26.4325 26.0415C28.2345 28.1436 28.5616 29.1665 29.595 29.1665H32.322C32.9554 29.1665 33.3189 28.9009 33.3335 28.3853C33.3366 28.254 33.3179 28.1071 33.2752 27.9436C33.0731 27.3436 32.146 25.8769 30.9897 24.479C30.3491 23.705 29.7168 22.9384 29.4262 22.5217C29.2314 22.2498 29.1575 22.0582 29.1668 21.8748C29.1762 21.6821 29.2762 21.4988 29.4262 21.2425C29.3991 21.2425 32.9241 16.2936 33.2679 14.6259Z" fill="white"/>
</svg>
